<svg xmlns="http://www.w3.org/2000/svg" viewBox="0 0 500 300">

  <path fill="currentColor" d="M434.5,152.1c-2.3-3.8-5.3-7.1-9-9.5c-3.1-2-6.5-3.5-10.1-4.3c-2.4-0.5-4.8-1-7.2-1.3c-2.7-0.3-5.3-1-7.7-2.3 c-2.9-1.5-5.5-3.4-7.8-5.8c-2.2-2.3-4.1-4.9-5.6-7.7c-1.3-2.5-2.2-5.1-2.7-7.8c-0.5-2.9-1.3-5.7-2.6-8.3c-1.3-2.8-3.1-5.3-5.3-7.5 c-2.5-2.4-5.4-4.2-8.6-5.4c-3.1-1.2-6.4-1.8-9.8-1.8c-2.8,0-5.6,0.4-8.3,1.1c-2.8,0.7-5.5,1.9-8,3.3c-2.9,1.7-5.5,3.8-7.7,6.3 c-2,2.3-3.6,4.9-4.7,7.7c-1,2.4-1.6,4.9-1.9,7.4c-0.3,3.1-1.1,6.1-2.5,8.8c-1.5,2.9-3.5,5.5-5.9,7.7c-2.6,2.3-5.6,4.1-8.9,5.2 c-3.2,1.1-6.5,1.6-9.9,1.6c-2.6,0-5.3-0.4-7.8-1.2c-2.6-0.8-5.1-2-7.4-3.5c-2.8-1.8-5.3-4-7.5-6.5c-2-2.3-3.6-4.9-4.7-7.7 c-0.9-2.2-1.5-4.5-1.7-6.9c-0.3-3.2-1.2-6.2-2.8-9c-1.6-2.9-3.7-5.5-6.3-7.6c-2.8-2.3-5.9-4-9.3-5c-3.2-1-6.6-1.5-10-1.5 c-2.6,0-5.2,0.4-7.7,1.1c-2.6,0.7-5,1.8-7.3,3.3c-2.7,1.7-5.1,3.8-7.1,6.2c-1.8,2.1-3.3,4.5-4.3,7c-0.9,2.2-1.4,4.5-1.6,6.8 c-0.3,3.1-1.1,6.2-2.6,8.9c-1.6,2.9-3.7,5.5-6.3,7.6c-2.7,2.2-5.9,3.8-9.2,4.8c-3.3,1-6.7,1.5-10.1,1.5c-2.4,0-4.8-0.3-7.1-0.9 c-2.5-0.6-4.8-1.6-7-2.9c-2.6-1.5-4.9-3.4-6.9-5.7c-1.9-2.1-3.4-4.5-4.5-7c-1-2.4-1.6-4.9-1.8-7.4c-0.3-3-1.1-6-2.4-8.7 c-1.5-3-3.6-5.6-6.1-7.8c-2.8-2.3-6.1-4.1-9.6-5.2c-3.3-1.1-6.8-1.6-10.3-1.6c-2.2,0-4.4,0.2-6.6,0.7c-2.5,0.6-4.9,1.5-7.1,2.8 c-2.6,1.5-4.9,3.3-7,5.4c-2,2.1-3.6,4.4-4.8,7c-1.1,2.4-1.9,5-2.3,7.6c-0.5,3.2-1.5,6.3-3,9.2c-1.6,3.1-3.8,5.8-6.4,8.1 c-2.9,2.5-6.2,4.5-9.8,5.8c-3.3,1.3-6.8,1.9-10.3,1.9c-1.5,0-3-0.1-4.5-0.4c-3.1-0.6-6-1.7-8.7-3.3c-2.8-1.7-5.4-3.8-7.5-6.3 c-2.1-2.5-3.8-5.3-4.9-8.4c-1-2.9-1.7-5.8-1.9-8.8c-0.3-3.2-1-6.3-2.3-9.3c-1.4-3.1-3.4-5.9-5.9-8.3c-2.7-2.6-5.9-4.7-9.5-6.2 c-3.4-1.4-7-2.1-10.7-2.1c-2.2,0-4.3,0.3-6.4,0.8c-3.1,0.8-6,2.1-8.6,3.9c-2.9,2-5.3,4.4-7.3,7.2c-2,2.8-3.4,5.9-4.2,9.1 c-0.8,3.2-1.1,6.5-1.1,9.8c0,2.6,0.2,5.1,0.7,7.6c0.6,3.1,1.7,6.1,3.4,8.8c1.9,3,4.2,5.7,6.9,8c2.8,2.4,6,4.3,9.5,5.6 c3.3,1.2,6.7,1.8,10.1,1.8c2.1,0,4.2-0.2,6.3-0.7c3.1-0.7,6.1-1.9,8.7-3.5c2.9-1.8,5.4-4,7.5-6.5c2-2.5,3.6-5.2,4.7-8.1 c1.1-2.9,1.8-5.9,2.1-8.9c0.3-3.2,1.2-6.3,2.6-9.3c1.6-3.1,3.7-5.9,6.2-8.4c2.8-2.7,6-4.9,9.6-6.4c3.4-1.5,7-2.2,10.7-2.2 c2.1,0,4.2,0.2,6.2,0.7c3.1,0.7,6.1,2,8.7,3.6c2.9,1.8,5.5,4,7.6,6.6c2.1,2.6,3.7,5.5,4.8,8.5c1.1,3,1.8,6.2,2,9.3 c0.3,3.3,1.1,6.4,2.5,9.4c1.6,3.2,3.7,6.1,6.3,8.7c2.8,2.8,6.1,5.1,9.7,6.7c3.4,1.5,7.1,2.3,10.8,2.3c1.7,0,3.5-0.2,5.2-0.5 c3.2-0.6,6.3-1.8,9.1-3.5c3-1.8,5.6-4.1,7.8-6.7c2.2-2.7,3.9-5.7,5.1-8.9c1.2-3.2,1.9-6.5,2.1-9.9c0.2-3.4,1.1-6.7,2.5-9.8 c1.5-3.3,3.6-6.3,6.2-8.9c2.8-2.9,6.1-5.2,9.7-6.9c3.5-1.6,7.2-2.4,10.9-2.4c2.2,0,4.4,0.3,6.5,0.9c3.2,0.9,6.2,2.3,8.9,4.2 c3,2.1,5.5,4.6,7.6,7.5c2.1,2.9,3.6,6.1,4.6,9.4c1,3.3,1.5,6.7,1.5,10.1c0,3,0.4,6,1.2,8.9c1,3.1,2.5,6,4.5,8.6 c2.2,2.8,4.9,5.2,7.9,7.1c3.1,1.9,6.5,3.3,10,4c3.4,0.7,6.9,1.1,10.3,1.1c2.2,0,4.4-0.2,6.5-0.6c3.2-0.6,6.2-1.8,9.1-3.5 c3-1.8,5.6-4,7.8-6.6c2.2-2.7,3.9-5.6,5.1-8.7c1.1-3.1,1.8-6.3,2-9.6c0.2-3.4,1.1-6.7,2.6-9.8c1.6-3.3,3.7-6.3,6.3-8.9 c2.9-2.8,6.2-5,9.8-6.6c3.4-1.5,7-2.3,10.7-2.3c1.9,0,3.8,0.2,5.6,0.6c3.3,0.7,6.4,2,9.3,3.9c3,1.9,5.6,4.4,7.7,7.2 c2.1,2.9,3.7,6,4.7,9.3c1,3.3,1.5,6.7,1.5,10c0,2.3,0.3,4.6,0.9,6.8c0.7,2.5,1.9,4.9,3.4,7.1c1.8,2.6,4.1,4.9,6.7,6.7 c2.8,2,6,3.5,9.3,4.4c3.2,0.9,6.5,1.4,9.9,1.4c2.4,0,4.8-0.3,7.2-1c3.2-0.9,6.3-2.3,9.1-4.3c3-2.1,5.5-4.7,7.5-7.7 c2-3,3.5-6.3,4.4-9.8c0.9-3.4,1.4-6.9,1.4-10.4c0-2.3,0.3-4.6,0.9-6.8c0.7-2.5,1.9-4.9,3.5-7c1.8-2.5,4.1-4.7,6.7-6.4 c2.7-1.8,5.8-3.1,9.1-3.8c3.2-0.7,6.5-1.1,9.8-1.1c2.7,0,5.4,0.4,8,1.2c3.2,1,6.2,2.6,8.8,4.7c2.9,2.3,5.3,5.1,7.2,8.2 c1.9,3.1,3.2,6.5,3.9,10c0.7,3.4,1,6.9,1,10.4c0,2.1,0.3,4.2,0.9,6.2c0.7,2.3,1.8,4.5,3.3,6.5c1.7,2.3,3.8,4.4,6.2,6 c2.6,1.7,5.4,3,8.4,3.8c2.9,0.8,6,1.2,9.1,1.2c2.9,0,5.7-0.4,8.4-1.2c3-0.8,5.8-2.2,8.3-4c2.8-2.1,5.2-4.6,7-7.5 c1.9-3,3.3-6.3,4.1-9.8c0.8-3.4,1.2-6.9,1.2-10.5C434.6,152.1,434.5,152.1,434.5,152.1z"/>

</svg>