<svg xmlns="http://www.w3.org/2000/svg" viewBox="0 0 400 280">
  <!-- Switzerland realistic outline with characteristic features:
       - Angular Basel corner (NW)
       - Jura bulge (W)  
       - Lake Geneva dip (SW)
       - Ticino southern extension
       - Graubünden eastern area
       - Lake Constance corner (NE) -->
  <path 
    fill="#f1f5f9" 
    stroke="#94a3b8" 
    stroke-width="1.5"
    stroke-linejoin="round"
    d="M95,52 L110,48 L125,45 L140,48 L158,45 L175,42 L192,45 L210,48 L225,45 
       L240,42 L255,45 L272,52 L288,60 L302,70 L315,82 L325,95 L332,110 
       L338,125 L342,140 L340,155 L335,168 L328,180 L318,192 L305,202 
       L290,210 L272,218 L252,228 L230,238 L205,242 L180,240 L155,235 
       L132,225 L112,212 L95,195 L82,175 L72,155 L65,135 L62,115 L65,95 
       L72,78 L82,64 Z"
  />
  
  <!-- Lakes -->
  <ellipse cx="130" cy="228" rx="14" ry="4" fill="#93c5fd" opacity="0.5"/>
  <ellipse cx="285" cy="115" rx="8" ry="3" fill="#93c5fd" opacity="0.5"/>
  <ellipse cx="332" cy="88" rx="6" ry="3" fill="#93c5fd" opacity="0.5"/>
</svg>