<svg xmlns="http://www.w3.org/2000/svg" viewBox="0 0 200 140">
  <!-- Simplified Switzerland shape -->
  <path 
    fill="#e2e8f0" 
    stroke="#94a3b8" 
    stroke-width="1"
    d="M30,70 
       L35,55 L45,50 L55,45 L60,35 L75,30 L90,25 L105,28 L115,22 L130,25 L145,30 L155,28 L165,35 L175,45 L178,55 
       L175,65 L170,75 L165,85 L155,95 L145,100 L130,105 L115,108 L100,110 L85,108 L70,105 L55,100 L45,95 L35,85 L30,75 
       Z"
  />
  <!-- Lake Geneva -->
  <ellipse cx="45" cy="95" rx="12" ry="6" fill="#bfdbfe" opacity="0.6"/>
  <!-- Lake Zurich -->
  <ellipse cx="145" cy="55" rx="8" ry="4" fill="#bfdbfe" opacity="0.6"/>
  <!-- Lake Constance partial -->
  <ellipse cx="170" cy="35" rx="10" ry="5" fill="#bfdbfe" opacity="0.6"/>
</svg>