<svg xmlns="http://www.w3.org/2000/svg" viewBox="0 0 400 280">
  <!-- Realistic Switzerland outline based on actual borders -->
  <path 
    fill="#f1f5f9" 
    stroke="#94a3b8" 
    stroke-width="2"
    d="M95,85 L105,75 L120,70 L135,60 L150,55 L165,50 L180,48 L195,50 L210,45 L225,40 L240,38 L255,42 L270,48 L285,55 L300,65 L310,75 L318,85 L325,95 L330,108 L332,120 L330,135 L325,150 L318,165 L308,178 L295,188 L280,195 L265,200 L250,205 L235,210 L220,215 L205,218 L190,220 L175,218 L160,215 L145,210 L130,205 L115,198 L100,188 L88,175 L78,160 L72,145 L68,130 L65,115 L68,100 L75,90 L85,85 Z"
  />
  
  <!-- Graubünden extension (east) -->
  <path 
    fill="#f1f5f9" 
    stroke="#94a3b8" 
    stroke-width="2"
    d="M330,108 L345,100 L360,95 L372,100 L380,112 L378,128 L370,145 L358,160 L342,172 L325,180 L308,178 L318,165 L325,150 L330,135 L332,120 L330,108 Z"
  />
  
  <!-- Ticino extension (south) -->
  <path 
    fill="#f1f5f9" 
    stroke="#94a3b8" 
    stroke-width="2"
    d="M220,215 L235,225 L248,240 L255,255 L250,265 L235,268 L220,262 L208,250 L200,235 L205,218 L220,215 Z"
  />
  
  <!-- Lake Geneva (Genfersee) -->
  <ellipse cx="95" cy="200" rx="30" ry="10" fill="#93c5fd" opacity="0.8"/>
  
  <!-- Lake Neuchâtel -->
  <ellipse cx="135" cy="165" rx="15" ry="6" fill="#93c5fd" opacity="0.7"/>
  
  <!-- Lake Zurich -->
  <ellipse cx="285" cy="105" rx="18" ry="6" fill="#93c5fd" opacity="0.8"/>
  
  <!-- Lake Lucerne -->
  <path d="M225,130 Q240,125 250,132 Q255,140 245,148 Q230,145 225,135 Z" fill="#93c5fd" opacity="0.7"/>
  
  <!-- Lake Constance (partial) -->
  <ellipse cx="335" cy="62" rx="22" ry="10" fill="#93c5fd" opacity="0.8"/>
  
  <!-- Lago Maggiore (partial) -->
  <ellipse cx="230" cy="255" rx="8" ry="15" fill="#93c5fd" opacity="0.7"/>
  
  <!-- City markers -->
  <circle cx="75" cy="195" r="5" fill="#475569"/>
  <text x="75" y="212" font-size="11" fill="#475569" text-anchor="middle" font-family="system-ui" font-weight="500">Genf</text>
  
  <circle cx="165" cy="145" r="5" fill="#475569"/>
  <text x="165" y="162" font-size="11" fill="#475569" text-anchor="middle" font-family="system-ui" font-weight="500">Bern</text>
  
  <circle cx="275" cy="95" r="5" fill="#475569"/>
  <text x="275" y="85" font-size="11" fill="#475569" text-anchor="middle" font-family="system-ui" font-weight="500">Zürich</text>
  
  <circle cx="195" cy="55" r="5" fill="#475569"/>
  <text x="195" y="48" font-size="11" fill="#475569" text-anchor="middle" font-family="system-ui" font-weight="500">Basel</text>
  
  <circle cx="240" cy="130" r="4" fill="#64748b"/>
  <text x="240" y="122" font-size="10" fill="#64748b" text-anchor="middle" font-family="system-ui">Luzern</text>
</svg>